{"asset":{"generator":"Khronos glTF Spline I/O v0.0.1","version":"2.0"},"scenes":[{"nodes":[0]}],"nodes":[{"name":"Noise Displace - Copy","children":[1,2]},{"name":"Sphere","matrix":[1,0,0,0,0,1,0,0,0,0,1,0,0,0,0,1],"mesh":0},{"name":"Default Camera","camera":0,"translation":[1.23828125,-19.24218749999994,1000],"rotation":[-3.019806626980426e-17,0,0,1],"children":[3]},{"name":"Default Directional Light","translation":[850000,1300000,1000000],"rotation":[-0.45895513091666534,0.1367267597249462,-0.25064115022945466,0.8413352451859125],"extensions":{"KHR_lights_punctual":{"light":0}}}],"cameras":[{"type":"orthographic","orthographic":{"xmag":1366,"ymag":695,"zfar":50000,"znear":-50000}}],"meshes":[{"primitives":[{"attributes":{"POSITION":1,"NORMAL":2,"TEXCOORD_0":3},"indices":0}]}],"buffers":[{"uri":"data:application/octet-stream;base64,","byteLength":727584}],"bufferViews":[{"buffer":0,"byteOffset":0,"byteLength":195072,"target":34963},{"buffer":0,"byteOffset":195072,"byteLength":199692,"target":34962},{"buffer":0,"byteOffset":394764,"byteLength":199692,"target":34962},{"buffer":0,"byteOffset":594456,"byteLength":133128,"target":34962}],"accessors":[{"bufferView":0,"byteOffset":0,"componentType":5123,"count":97536,"type":"SCALAR","min":[0],"max":[16640]},{"bufferView":1,"byteOffset":0,"componentType":5126,"count":16641,"type":"VEC3","min":[-213.5,-213.5,-213.5],"max":[213.5,213.5,213.5]},{"bufferView":2,"byteOffset":0,"componentType":5126,"count":16641,"type":"VEC3","min":[-1,-1,-1],"max":[1,1,1]},{"bufferView":3,"byteOffset":0,"componentType":5126,"count":16641,"type":"VEC2","min":[-0.00390625,0],"max":[1.00390625,1]}],"extensions":{"KHR_lights_punctual":{"lights":[{"type":"directional","name":"Default Directional Light","color":[1,1,1],"intensity":0.75}]}},"extensionsUsed":["KHR_lights_punctual"]}